<?xml version="1.0" encoding="UTF-8"?>
<svg width="1200pt" height="1200pt" version="1.1" viewBox="0 0 1200 1200" xmlns="http://www.w3.org/2000/svg">
 <path d="m371.58 917.86c-0.32812 0.375-0.5625 0.65625-0.70312 0.84375-0.46875 0.70312 0.1875-0.1875 0.70312-0.84375zm376.6-132.1c-0.5625 2.2969-1.1719 4.6875-1.7812 6.9844-1.4062 5.2969-2.7188 10.266-2.7188 10.594 3.0469 28.453 1.3594 45.094-3.5156 54.422 11.344-1.7812 23.531-2.9062 36.328-3.1875 3.7969-0.09375 8.5312-1.8281 12.422-5.0156 2.7656-2.25 5.0156-5.25 6.0469-8.8125 1.0312-3.6094 0.79688-7.9688-1.3594-13.078-3.7969-8.8125-13.125-19.406-31.125-31.547-5.1562-3.4688-9.8906-6.9375-14.297-10.453zm-97.125-69.891c1.7344 1.4062 3.8438 4.0781 6.4688 7.3125 9.9375 12.422 24.938 31.125 63.469 34.875 5.0156 6.7969 11.203 13.688 18.75 20.531 0.14062 0.14062 0.23438 0.23437 0.375 0.32812 1.7344 1.5469-3.4688 4.875-5.0625 10.781-1.6875 6.375-3.2812 12.328-3.0469 14.859 4.3594 40.688-0.42188 51.375-8.9531 52.266-4.4531 0.46875-10.547-1.0781-16.922-2.7656-6.75-1.7344-13.781-3.5625-21-3.6562-47.391-0.65625-72.891 4.5469-96.984 9.4219-20.484 4.1719-39.984 8.1562-71.719 7.9688 6.5156-25.312 55.875-45.844 63.75-48.938 80.719 3.1406 104.48 0.9375 104.95-10.312 0.23438-5.9062-5.4844-11.156-13.031-18.141-15.75-14.531-41.859-38.578-21.047-74.578zm-249.56-214.31c22.172-15.234 38.484-31.453 50.953-49.875 12.188-18 20.625-37.969 27.234-61.172 52.312 4.2656 82.078 41.016 110.34 75.938 27.656 34.219 54 66.75 98.766 69 10.781 0.5625 22.172 2.9062 33.844 6.8906 41.203 13.969 85.406 47.297 118.73 88.266 33.188 40.781 55.547 89.062 53.344 133.08-0.46875 9.9375-2.25 19.641-5.4375 29.062-9.4688 27.938-3 40.969 12.75 46.312 14.203 4.7812 35.859 1.7344 59.672-1.5938 6-0.84375 12.141-1.6875 18.891-2.5312 47.719-5.8125 46.5-50.812 45.234-98.25-1.1719-43.969-2.4375-90.281 39.891-101.67-6.6562 9.8438-13.078 24.281-15.656 44.672-5.2969 41.859-5.6719 73.828-6 98.438-0.89062 71.672-0.9375 76.406-141.24 85.172-32.344 2.0156-45.328-12.562-50.156-23.625-0.5625-1.2656-0.98438-2.4375-1.3594-3.5625-0.14062-3.4219-0.42188-5.7656-0.65625-7.1719-5.6719-30.328-11.719-35.016-12.797-18.328-0.46875 2.7188-0.51562 6.5156-0.046875 11.391 0.09375 2.8125 0.28125 5.8594 0.5625 9.2344 0.14062 1.6875 0.51562 4.125 1.3125 6.8906 0.09375 2.8594 0.09375 6.6094-0.09375 11.344-0.375 11.203 3.0469 17.438 5.3438 21.516-3.6094 1.5-11.203 3.75-24.656 7.6875-10.266 3-23.859 7.0312-42.047 12.609-58.828 18.141-93.094 21.844-108.75 18.281-4.6406-1.0312-6.7031-2.3438-6.6562-3.75 0.09375-2.5781 3.1406-6.2812 8.6719-10.594 17.625-13.688 56.297-28.031 105.19-28.922 6.2344-0.09375 13.734-2.7656 19.688-7.6406 4.5-3.6562 8.1562-8.625 9.8906-14.672s1.4531-13.078-1.875-20.859c-4.5938-10.734-15.281-23.156-35.391-36.656-7.9219-5.3438-14.859-10.688-20.859-16.078l-0.28125-0.28125c-0.09375-0.09375-0.23438-0.1875-0.32812-0.28125-7.5938-6.8438-13.641-13.688-18.375-20.391l-0.5625-0.84375c-10.734-15.562-14.391-30.469-13.172-43.547 1.0312-11.016 5.5312-20.766 12.094-28.406s15.094-13.125 24.234-15.703c14.953-4.2188 31.641-0.51562 43.594 14.859 1.9688 2.5781 5.6719 3.0469 8.2031 1.0781 2.5781-1.9688 3.0469-5.6719 1.0781-8.2031-15.281-19.688-36.703-24.422-56.016-18.984-11.344 3.1875-21.938 10.031-30 19.406s-13.547 21.375-14.812 34.969c-1.1719 12.609 1.3125 26.531 8.9531 40.969-26.859-5.1094-38.297-19.359-46.125-29.156-5.9062-7.4062-10.312-12.844-17.859-12.844-0.28125 0-0.60938 0-0.89062 0.046875-10.406 0.32812-32.297-1.3125-53.062-5.0625-12.094-2.2031-23.672-5.1094-32.25-8.7656-6.8906-2.9531-11.391-5.9531-11.531-8.7656 2.1094-15.609 2.7656-32.625 1.5469-51.281-0.23438-3.8438-0.1875-7.6406-0.09375-11.438 0.046875-2.5312 0.09375-5.0625 0.09375-6.0938 0-3.2344-2.625-5.8594-5.8594-5.8594s-5.8594 2.625-5.8594 5.8594c0 2.9531-0.046875 4.4062-0.046875 5.8594-0.09375 4.1719-0.1875 8.2969 0.09375 12.375 5.5781 84.75-30.094 134.39-59.203 174.79-20.344 28.266-37.594 52.266-36.938 81.281 0.60938 27.562-22.875 36.422-43.781 36.891-6.3281 0.14062-12.422-0.46875-17.625-1.5938-4.875-1.0312-8.8125-2.4375-11.156-3.9844l0.14062-0.14062c3.1406-3.4219 10.406-11.391 32.625-44.062 9.7031-14.25 12.094-22.922 14.672-32.25 3.5156-12.703 7.4062-26.672 34.688-61.031 18.375-23.109 11.391-48.422 1.7344-83.812-6.3281-23.062-13.922-50.672-15.984-84.75-0.1875-3.2344-2.9531-5.7188-6.1875-5.5312s-5.7188 2.9531-5.5312 6.1875c1.5469 25.125 5.9062 46.688 10.641 65.578-6.0938 9.1875-17.531 18.328-30.188 28.406-10.406 8.2969-21.562 17.203-31.734 27.703-39.609 40.922-46.688 51.703-64.547 78.938-8.1562 12.422-18.562 28.312-35.297 51.984-6.1875 8.7656-26.109 9.0469-42.797 7.5-7.1719-0.65625-13.781-1.7344-18.703-2.6719l-0.14062-0.046876c3.9375-3.6094 10.641-7.8281 17.25-12.047 9.6562-6.0938 19.219-12.141 23.25-18.797 11.25-18.562 29.672-42.141 48.797-66.703 37.406-47.953 77.672-99.516 76.219-129.24-2.0156-41.109 5.5312-69.984 11.953-94.406 4.3594-16.688 8.25-31.453 8.4375-46.688zm-107.95-195.56c4.125 0 7.875 1.6875 10.594 4.4062s4.4062 6.4688 4.4062 10.594-1.6875 7.8281-4.4062 10.594c-2.7188 2.7188-6.4688 4.4062-10.594 4.4062s-7.875-1.6875-10.594-4.4062-4.4062-6.4688-4.4062-10.594 1.6875-7.875 4.4062-10.594 6.4688-4.4062 10.594-4.4062zm33.562 109.41c2.4844 0.5625 4.2656 2.5781 4.5938 4.9688 12.797-22.641 24.375-51.938 2.2031-87.047-1.7344-2.7188-0.89062-6.375 1.8281-8.0625 2.7188-1.7344 6.375-0.89062 8.0625 1.8281 29.719 47.016 7.5469 83.719-8.3906 110.06-3.9375 6.5156-7.4531 12.375-9.4688 17.203-2.4844 6.1406-1.9219 10.781 5.5781 13.828 26.25 10.688 39.516-2.0625 47.297-21.141 5.3906-13.312 8.4375-29.625 11.156-44.062 1.8281-9.7969 3.5156-18.75 5.6719-25.641 0.375-1.1719 0.28125-3.1875 0.1875-5.1562-0.046875-1.2188-0.09375-2.3906-0.09375-3 0-3.2344 2.625-5.8594 5.8594-5.8594s5.8594 2.625 5.8594 5.8594c0 1.1719 0.046875 1.8281 0.046875 2.5312 0.14062 3.0469 0.28125 6.0469-0.70312 9.1406-1.9688 6.3281-3.6094 14.906-5.3438 24.328-2.8125 15-6 32.016-11.812 46.312-0.75 1.7812-1.5 3.5625-2.2969 5.25 2.0156 0.1875 3.8438 1.4062 4.7812 3.375 4.5938 9.8906 7.2188 18.984 8.4844 27.703 18-13.172 31.594-27.094 42.141-42.703 11.672-17.203 19.734-36.609 26.109-59.438-0.60938-0.75-1.2656-1.5469-1.9688-2.4375-15.703-19.641-75.844-94.875-101.95-103.17-16.031-5.0625-34.594-3.0469-52.359 2.3906-25.359 7.7344-48.984 22.172-61.969 32.953-19.969 16.594-47.203 14.344-71.344 12.375-7.5469-0.60938-14.672-1.2188-20.953-1.0781 1.3125 0.75 2.4844 1.6406 3.5625 2.6719 2.9062 2.9062 4.7344 6.9375 4.7344 11.391s-1.7812 8.4844-4.7344 11.391c-0.14062 0.14062-0.28125 0.23438-0.42188 0.375-2.9062 2.7188-6.75 4.3594-10.969 4.3594-4.4062 0-8.4375-1.7812-11.391-4.7344-2.3438-2.3438-3.9375-5.3906-4.5-8.7656-0.046875 0.32812-0.046875 0.65625-0.09375 1.0312-1.3594 26.906 5.8594 41.297 18.422 48.797 13.219 7.875 32.953 9.0469 55.078 9.0469 14.203 0 18.188 0 21.609-0.046875 19.406-0.09375 28.875-0.14062 38.203 0.89062 8.9062 0.98438 17.438 2.9062 34.125 6.6562 6 1.3594 13.219 2.9531 25.172 5.5781z" fill-rule="evenodd"/>
</svg>
